<?xml version="1.0" encoding="UTF-8" standalone="no"?>
<!-- Created with Inkscape (http://www.inkscape.org/) -->
<svg
   viewBox="0 0 86.012369 38.630859"
   version="1.1"
   id="pc-img"
   xmlns:xlink="http://www.w3.org/1999/xlink"
   xmlns="http://www.w3.org/2000/svg"
   xmlns:svg="http://www.w3.org/2000/svg">
  <defs
     id="defs1">
    <linearGradient
       id="swatch40">
      <stop
         style="stop-color:currentColor;stop-opacity:1;"
         offset="0"
         id="stop40" />
    </linearGradient>
    <linearGradient
       id="linearGradient25">
      <stop
         style="stop-color:currentColor;stop-opacity:0;"
         offset="0"
         id="stop25" />
      <stop
         style="stop-color:currentColor;stop-opacity:0;"
         offset="1"
         id="stop26" />
    </linearGradient>
    <linearGradient
       id="swatch19">
      <stop
         style="stop-color:currentColor;stop-opacity:1;"
         offset="0"
         id="stop19" />
    </linearGradient>
    <linearGradient
       id="swatch12">
      <stop
         style="stop-color:currentColor;stop-opacity:1;"
         offset="0"
         id="stop12" />
    </linearGradient>
    <linearGradient
       xlink:href="#linearGradient25"
       id="linearGradient26"
       x1="45.089512"
       y1="48.950188"
       x2="105.74483"
       y2="48.950188"
       gradientUnits="userSpaceOnUse" />
  </defs>
  <g
     id="g1"
     transform="translate(-45.089511,-31.616845)">
    <rect
       style="fill:currentColor;fill-opacity:1;fill-rule:evenodd;stroke-width:0.265;stroke-miterlimit:4;stroke-dasharray:none"
       id="rect551"
       width="42.333332"
       height="2.6458333"
       x="54.350014"
       y="67.471024" />
    <path
       style="fill:currentColor;fill-opacity:1;stroke:currentColor;stroke-width:2.3012;stroke-linecap:butt;stroke-linejoin:miter;stroke-miterlimit:4;stroke-dasharray:none;stroke-opacity:1"
       d="M 62.077574,69.0629 75.516679,61.183091 88.955783,69.0629"
       id="path699" />
    <rect
       style="fill:url(#linearGradient26);fill-opacity:1;stroke:currentColor;stroke-width:3.63386;stroke-miterlimit:4;stroke-dasharray:none;stroke-opacity:1"
       id="rect1951"
       width="57.021458"
       height="25.47047"
       x="46.906441"
       y="36.214951"
       d="M 55.5625,29.104166 H 84.666664 V 55.562498 H 55.5625 Z m 58.20833,0 H 84.666664 v 26.458332 h 29.104166 z" />
  </g>
  <g
     id="layer1"
     transform="translate(-45.089511,-31.616845)">
    <path
       id="path27"
       style="color:currentColor;display:inline;mix-blend-mode:normal;fill:currentColor;fill-rule:evenodd;-inkscape-stroke:none"
       d="m 109.67023,31.616845 v 38.630859 h 21.43165 V 31.616845 Z m 2.91016,2.912109 h 15.60938 v 2.378906 h -15.60938 z m 0,3.96875 h 15.60938 v 2.378906 h -15.60938 z m 0,3.96875 h 15.60938 v 2.378906 h -15.60938 z m 0,5.291016 h 3.70313 v 1.05664 h -3.70313 z m 0,2.646484 h 3.70313 v 1.056641 h -3.70313 z m 6.48242,11.773437 h 2.64649 v 1.322266 h -2.64649 z" />
  </g>
  <g
     aria-label="&lt;/&gt;"
     transform="matrix(0.26458333,0,0,0.26458333,-54.349931,-31.616846)"
     id="text11561"
     style="font-weight:bold;font-size:74.6667px;line-height:1.15;font-family:Cambria;-inkscape-font-specification:'Cambria Bold';text-align:justify;white-space:pre;shape-inside:url(#rect11563);fill:currentColor;stroke-width:1.00157">
    <path
       d="m 261.28383,186.28752 v -7.875 l 35.47397,-14.32813 v 7.80208 l -28.14585,10.46355 28.14585,10.5 v 7.80209 z"
       style="text-align:center;text-anchor:middle"
       id="path100590" />
    <path
       d="m 336.75261,151.50625 -26.32293,67.849 h -7.18229 l 26.39584,-67.849 z"
       style="text-align:center;text-anchor:middle"
       id="path100592" />
    <path
       d="m 343.2422,200.65211 v -7.80209 l 28.14585,-10.5 -28.14585,-10.46355 v -7.80208 l 35.47398,14.32813 v 7.875 z"
       style="text-align:center;text-anchor:middle"
       id="path100594" />
  </g>
</svg>